<mxfile host="app.diagrams.net" modified="2023-08-09T03:08:29.102Z" agent="Mozilla/5.0 (Windows NT 10.0; Win64; x64) AppleWebKit/537.36 (KHTML, like Gecko) Chrome/114.0.0.0 Safari/537.36" etag="IdhjDTT4Q_yBnl4vkP8U" version="21.2.2" type="github">
  <diagram name="第 1 页" id="QzQvl7RkcnfHtPbONu5G">
    <mxGraphModel dx="1434" dy="764" grid="1" gridSize="10" guides="1" tooltips="1" connect="1" arrows="1" fold="1" page="1" pageScale="1" pageWidth="827" pageHeight="1169" math="0" shadow="0">
      <root>
        <mxCell id="0" />
        <mxCell id="1" parent="0" />
        <mxCell id="EEWJjIin1MLQcfQot93i-2" value="public node&lt;br&gt;10.11.11.11" style="rounded=0;whiteSpace=wrap;html=1;" vertex="1" parent="1">
          <mxGeometry x="230" y="190" width="120" height="60" as="geometry" />
        </mxCell>
        <mxCell id="EEWJjIin1MLQcfQot93i-4" value="10086" style="rounded=0;whiteSpace=wrap;html=1;" vertex="1" parent="1">
          <mxGeometry x="330" y="230" width="50" height="20" as="geometry" />
        </mxCell>
        <mxCell id="EEWJjIin1MLQcfQot93i-5" value="10010" style="rounded=0;whiteSpace=wrap;html=1;" vertex="1" parent="1">
          <mxGeometry x="200" y="230" width="50" height="20" as="geometry" />
        </mxCell>
        <mxCell id="EEWJjIin1MLQcfQot93i-6" value="local node&lt;br&gt;192.168.90.215" style="rounded=0;whiteSpace=wrap;html=1;" vertex="1" parent="1">
          <mxGeometry x="230" y="340" width="120" height="60" as="geometry" />
        </mxCell>
        <mxCell id="EEWJjIin1MLQcfQot93i-7" value="10086" style="rounded=0;whiteSpace=wrap;html=1;" vertex="1" parent="1">
          <mxGeometry x="330" y="380" width="50" height="20" as="geometry" />
        </mxCell>
        <mxCell id="EEWJjIin1MLQcfQot93i-8" value="10010" style="rounded=0;whiteSpace=wrap;html=1;" vertex="1" parent="1">
          <mxGeometry x="200" y="380" width="50" height="20" as="geometry" />
        </mxCell>
      </root>
    </mxGraphModel>
  </diagram>
</mxfile>
